<?xml version="1.0" standalone="no"?>
<!DOCTYPE svg PUBLIC "-//W3C//DTD SVG 20010904//EN"
 "http://www.w3.org/TR/2001/REC-SVG-20010904/DTD/svg10.dtd">
<svg version="1.0" xmlns="http://www.w3.org/2000/svg"
 width="350.000000pt" height="350.000000pt" viewBox="0 0 350.000000 350.000000"
 preserveAspectRatio="xMidYMid meet">
<metadata>
Created by potrace 1.14, written by Peter Selinger 2001-2017
</metadata>
<g transform="translate(0.000000,350.000000) scale(0.100000,-0.100000)"
fill="#000000" stroke="none">
<path d="M615 3489 c-184 -17 -322 -76 -425 -179 -107 -106 -161 -238 -180
-437 -12 -128 -12 -2118 0 -2246 19 -199 73 -331 180 -437 106 -107 238 -161
437 -180 128 -12 2118 -12 2246 0 199 19 331 73 437 180 107 106 161 238 180
437 12 128 12 2118 0 2246 -19 199 -73 331 -180 437 -106 107 -238 161 -437
180 -117 11 -2141 11 -2258 -1z m1492 -224 c61 -18 144 -89 175 -149 29 -57
36 -167 14 -234 -22 -65 -84 -136 -150 -169 -70 -37 -188 -39 -257 -5 -238
117 -227 457 19 553 58 22 132 24 199 4z m-230 -712 c158 -52 277 -133 374
-253 25 -32 83 -129 129 -216 45 -88 86 -164 92 -171 5 -7 32 -19 60 -29 131
-43 186 -180 115 -285 -37 -54 -71 -73 -140 -77 -73 -4 -168 27 -254 84 -58
39 -77 61 -122 153 -18 34 -34 61 -36 60 -2 -2 -24 -83 -50 -179 -26 -96 -51
-184 -55 -196 -8 -19 9 -42 121 -164 135 -148 152 -172 164 -230 4 -19 43
-163 87 -319 89 -316 93 -348 45 -420 -68 -103 -235 -108 -311 -8 -18 23 -49
117 -106 317 -45 157 -87 294 -94 305 -8 11 -124 140 -259 287 -261 285 -277
308 -277 405 0 24 32 161 70 304 39 143 70 262 70 264 0 7 -77 -23 -107 -41
-15 -10 -47 -36 -71 -58 -37 -36 -47 -55 -78 -151 -42 -132 -69 -176 -126
-204 -130 -63 -287 30 -288 170 0 53 57 231 99 306 76 137 225 266 378 325
123 48 183 58 338 54 124 -3 151 -7 232 -33z m-325 -1480 l36 -38 -74 -180
-75 -180 -212 -213 c-117 -117 -225 -221 -242 -229 -43 -23 -134 -21 -176 3
-53 31 -92 95 -93 151 -1 89 4 97 234 328 l219 220 61 145 c34 80 68 160 76
179 l14 33 97 -90 c54 -50 115 -108 135 -129z"/>
</g>
</svg>
